<?xml version="1.0" standalone="no"?>
<!DOCTYPE svg PUBLIC "-//W3C//DTD SVG 20010904//EN"
 "http://www.w3.org/TR/2001/REC-SVG-20010904/DTD/svg10.dtd">
<svg version="1.0" xmlns="http://www.w3.org/2000/svg"
 width="1024.000000pt" height="1024.000000pt" viewBox="0 0 1024.000000 1024.000000"
 preserveAspectRatio="xMidYMid meet">

<g transform="translate(0.000000,1024.000000) scale(0.100000,-0.100000)"
fill="#000000" stroke="none">
<path d="M0 5120 l0 -5120 5120 0 5120 0 0 5120 0 5120 -5120 0 -5120 0 0
-5120z m3805 2697 c142 -36 265 -81 375 -138 253 -129 377 -241 778 -701 85
-98 160 -178 166 -178 6 0 85 89 176 197 236 281 467 512 598 598 248 161 505
242 797 252 188 6 284 -7 458 -63 391 -126 682 -386 866 -775 93 -196 149
-468 138 -674 -15 -262 -114 -558 -264 -784 -69 -102 -218 -257 -328 -337
-267 -197 -648 -305 -961 -275 -349 34 -646 167 -903 407 -46 43 -194 206
-328 362 -135 156 -251 282 -258 280 -7 -2 -89 -91 -180 -198 -368 -430 -444
-506 -613 -617 -226 -149 -537 -243 -804 -243 -282 0 -574 89 -797 244 -102
70 -269 231 -347 335 -123 164 -230 414 -271 633 -26 137 -23 370 6 508 65
310 207 576 422 791 104 104 213 182 355 252 141 71 326 130 469 151 17 2 102
3 190 1 131 -3 178 -8 260 -28z m-771 -3363 l46 -7 0 -68 0 -69 -55 0 c-61 0
-108 -19 -125 -49 -5 -11 -10 -42 -10 -70 l0 -51 80 0 80 0 0 -70 0 -70 -80 0
-80 0 0 -285 0 -285 -85 0 -85 0 0 285 0 285 -60 0 -60 0 0 70 0 70 59 0 59 0
7 78 c4 42 14 93 22 112 40 98 145 143 287 124z m307 -4 c10 -6 26 -25 35 -42
41 -79 -35 -166 -121 -138 -67 22 -87 110 -36 161 31 31 83 39 122 19z m1178
-7 c54 -45 42 -135 -22 -167 -34 -16 -42 -17 -75 -4 -22 8 -44 27 -55 47 -17
28 -18 38 -8 71 6 22 21 46 34 55 29 21 99 19 126 -2z m-2869 -518 l0 -495
-90 0 -90 0 0 495 0 495 90 0 90 0 0 -495z m4945 460 c83 -42 118 -100 123
-201 6 -111 -28 -185 -98 -214 l-31 -13 39 -17 c54 -24 108 -91 122 -152 17
-68 8 -173 -18 -225 -12 -22 -38 -55 -59 -72 -68 -56 -100 -61 -385 -61 l-258
0 0 496 0 496 253 -4 253 -3 59 -30z m-1635 -137 l0 -108 80 0 80 0 0 -70 0
-70 -81 0 -80 0 3 -194 c4 -233 5 -236 100 -236 l58 0 0 -75 0 -75 -90 0
c-103 0 -144 13 -182 58 -47 56 -52 91 -53 314 l0 208 -57 0 -58 0 0 70 0 70
55 0 55 0 0 103 c0 57 2 106 4 108 3 2 41 4 85 4 l81 1 0 -108z m2950 0 l0
-108 80 0 80 0 0 -70 0 -70 -80 0 -80 0 0 -167 c0 -170 9 -231 35 -253 7 -6
39 -11 69 -11 l56 0 0 -75 0 -74 -90 0 c-104 0 -144 13 -183 59 -41 49 -47 90
-47 314 l0 207 -60 0 -60 0 0 70 0 70 60 0 60 0 0 108 0 107 80 0 80 0 0 -107z
m-5571 -121 c25 -12 57 -38 73 -57 48 -62 58 -127 58 -397 l0 -243 -85 0 -85
0 0 236 c0 256 -6 288 -57 321 -35 23 -121 22 -163 -3 -65 -37 -70 -60 -70
-321 l0 -233 -83 0 -82 0 0 353 0 352 83 3 82 3 0 -58 0 -58 19 30 c27 46 77
83 119 90 20 4 42 8 47 10 22 9 102 -7 144 -28z m1711 7 c49 -21 85 -58 112
-118 22 -49 23 -64 26 -318 l3 -268 -85 0 -86 0 0 233 c0 201 -2 237 -18 266
-26 51 -61 73 -119 73 -61 0 -108 -23 -133 -65 -18 -29 -20 -52 -20 -269 l0
-238 -85 0 -85 0 0 355 0 355 86 0 86 0 -4 -56 c-5 -61 -8 -61 35 -3 54 71
184 95 287 53z m4585 2 c62 -26 110 -72 145 -138 31 -57 35 -73 38 -160 l4
-98 -246 0 c-230 0 -246 -1 -246 -18 0 -29 43 -104 71 -125 65 -47 183 -40
234 13 27 28 33 30 108 30 77 0 78 -1 72 -22 -13 -44 -56 -108 -88 -132 -69
-52 -125 -70 -224 -70 -82 0 -98 4 -157 33 -103 50 -156 132 -178 275 -21 136
17 262 105 343 53 49 70 59 139 78 63 18 168 13 223 -9z m-5265 -351 l0 -355
-80 0 -80 0 0 355 0 355 80 0 80 0 0 -355z m1170 0 l0 -355 -80 0 -80 0 0 355
0 355 80 0 80 0 0 -355z m930 83 c75 -236 100 -300 100 -255 0 7 37 127 83
267 l83 255 82 3 c45 2 82 1 82 0 0 -3 -196 -541 -303 -832 -31 -83 -85 -142
-150 -161 -52 -15 -133 -20 -161 -9 -12 5 -16 21 -16 70 l0 64 56 0 c50 0 60
4 89 33 47 47 54 95 26 177 -24 67 -211 584 -230 633 l-11 28 92 -3 93 -3 85
-267z m1635 2 c49 -148 91 -267 93 -265 2 2 42 120 89 262 47 142 88 262 92
266 5 4 42 7 83 5 l75 -3 -84 -230 c-171 -473 -236 -641 -262 -680 -36 -54
-97 -86 -176 -93 -35 -2 -75 -2 -89 2 -25 6 -26 10 -26 71 l0 65 61 0 c55 0
64 3 89 30 15 16 33 48 39 72 13 47 8 63 -173 553 -35 94 -67 180 -70 193 -7
22 -6 22 81 22 l89 0 89 -270z m-3462 -954 c42 -17 97 -80 97 -111 0 -22 -4
-25 -40 -25 -34 0 -42 4 -55 29 -40 79 -195 54 -195 -31 0 -42 30 -64 127 -93
98 -30 154 -63 172 -101 6 -14 11 -48 11 -77 0 -104 -65 -157 -195 -157 -114
0 -174 37 -200 124 l-14 46 42 0 c38 0 44 -3 62 -37 25 -46 56 -63 118 -63 40
0 53 5 78 29 61 61 27 106 -114 151 -74 24 -106 40 -132 66 -77 76 -52 199 49
245 49 22 143 25 189 5z m3091 2 c26 -8 60 -31 92 -63 64 -64 91 -146 81 -252
-16 -170 -123 -262 -292 -251 -119 8 -204 76 -235 188 -15 54 -12 171 7 225
20 61 85 127 144 148 54 19 147 21 203 5z m-2354 -38 l0 -40 -80 0 -80 0 0
-240 0 -240 -50 0 -50 0 0 240 0 240 -85 0 -85 0 0 40 0 40 215 0 215 0 0 -40z
m330 -160 c0 -226 6 -251 65 -276 45 -19 89 -18 132 3 57 26 63 55 63 278 l0
195 48 0 47 0 -5 -223 c-5 -221 -5 -224 -32 -264 -39 -60 -85 -78 -194 -78
-83 0 -94 2 -133 28 -74 49 -84 86 -89 330 l-5 207 52 0 51 0 0 -200z m937
173 c92 -50 140 -151 130 -279 -9 -119 -61 -198 -160 -239 -26 -11 -72 -15
-167 -15 l-130 0 0 281 0 281 143 -4 c123 -3 148 -6 184 -25z m483 -253 l0
-280 -50 0 -50 0 0 280 0 280 50 0 50 0 0 -280z"/>
<path d="M6595 7339 c-155 -20 -319 -94 -472 -212 -125 -96 -663 -684 -663
-724 0 -29 364 -457 530 -624 134 -134 213 -193 341 -253 118 -56 190 -75 306
-83 178 -12 369 32 547 125 75 39 109 65 196 152 198 198 270 376 270 670 0
160 -24 275 -84 404 -97 212 -266 375 -493 477 -136 62 -323 89 -478 68z m565
-559 l0 -160 -155 0 -155 0 0 160 0 160 155 0 155 0 0 -160z m-390 -402 l0
-158 -150 0 -150 0 0 158 0 157 150 0 150 0 0 -157z m390 -353 l0 -155 -155 0
-155 0 0 155 0 155 155 0 155 0 0 -155z"/>
<path d="M3330 7321 c-264 -58 -506 -255 -647 -526 -75 -146 -88 -205 -88
-405 0 -153 3 -185 23 -255 93 -324 329 -564 649 -662 79 -24 104 -26 253 -27
143 -1 175 2 243 22 168 48 291 127 465 296 185 180 552 604 552 638 0 21 -67
102 -256 308 -382 418 -493 507 -729 586 -101 34 -121 37 -245 40 -106 3 -154
0 -220 -15z"/>
<path d="M6204 4267 c-2 -7 -3 -69 -2 -136 l3 -123 129 1 c147 2 175 12 202
69 20 43 14 114 -13 151 -29 38 -75 50 -201 50 -84 1 -114 -2 -118 -12z"/>
<path d="M6200 3720 l0 -150 140 0 c156 0 196 10 227 56 25 39 24 128 -3 174
-34 59 -69 70 -226 70 l-138 0 0 -150z"/>
<path d="M8435 4001 c-43 -18 -105 -100 -105 -141 0 -6 59 -10 166 -10 l166 0
-7 38 c-14 78 -68 122 -150 121 -27 0 -59 -4 -70 -8z"/>
<path d="M6565 2836 c-41 -19 -83 -66 -95 -107 -15 -50 -12 -151 5 -191 31
-76 110 -118 197 -104 93 15 143 87 143 206 -1 61 -5 84 -25 120 -42 76 -146
111 -225 76z"/>
<path d="M5410 2640 l0 -200 75 0 c87 0 122 14 158 62 33 43 38 65 38 143 0
136 -59 195 -195 195 l-76 0 0 -200z"/>
</g>
</svg>
